<?xml version="1.0" standalone="no"?>
<!DOCTYPE svg PUBLIC "-//W3C//DTD SVG 20010904//EN"
 "http://www.w3.org/TR/2001/REC-SVG-20010904/DTD/svg10.dtd">
<svg version="1.0" xmlns="http://www.w3.org/2000/svg"
 width="138.000000pt" height="138.000000pt" viewBox="0 0 138.000000 138.000000"
 preserveAspectRatio="xMidYMid meet">
<metadata>
Created by potrace 1.10, written by Peter Selinger 2001-2011
</metadata>
<g transform="translate(0.000000,138.000000) scale(0.100000,-0.100000)"
fill="#000000" stroke="none">
<path d="M340 1300 c-72 -18 -129 -49 -184 -103 -75 -74 -99 -129 -100 -232
-1 -97 25 -162 100 -243 l49 -52 19 27 c19 28 19 28 0 11 -15 -13 -21 -14 -31
-3 -6 7 -10 16 -7 19 2 3 1 4 -3 1 -11 -9 -65 58 -90 112 -29 63 -37 198 -12
214 8 5 11 9 7 9 -4 0 -3 13 3 28 11 31 63 93 73 86 3 -2 4 -1 1 2 -11 15 78
77 139 98 79 26 205 15 247 -20 8 -8 19 -14 24 -14 4 0 25 -18 46 -39 22 -22
41 -36 44 -31 8 13 -74 81 -129 105 -59 26 -145 37 -196 25z"/>
<path d="M864 1282 c-74 -26 -102 -46 -239 -176 -109 -103 -125 -122 -125
-150 0 -37 7 -49 37 -65 39 -20 66 -3 174 105 l104 106 201 -207 200 -207 33
50 c52 82 74 156 69 237 -3 40 -14 90 -25 116 -26 57 -118 150 -181 181 -63
31 -177 36 -248 10z m253 -37 c29 -15 55 -36 58 -46 4 -11 13 -19 21 -19 8 0
14 -3 14 -7 0 -5 14 -23 30 -40 17 -18 31 -36 31 -40 1 -5 6 -19 12 -33 6 -14
11 -59 11 -100 1 -105 -45 -220 -88 -220 -15 0 -100 81 -166 159 -19 22 -38
37 -42 35 -5 -3 -7 -1 -6 3 2 5 -30 41 -69 80 -40 40 -73 75 -73 80 0 5 -13
10 -28 11 -22 2 -37 -7 -64 -35 -19 -21 -66 -68 -104 -104 -62 -59 -72 -66
-101 -62 -21 4 -34 11 -35 22 0 9 -2 22 -2 29 -2 22 248 262 272 262 5 0 18 9
30 20 12 12 22 19 22 16 0 -2 19 2 43 10 65 21 170 12 234 -21z"/>
<path d="M365 792 c-11 -2 -48 -31 -82 -65 -54 -53 -63 -66 -63 -97 0 -45 33
-80 76 -80 28 1 94 44 83 55 -9 8 -40 -6 -34 -15 7 -12 -47 -19 -66 -9 -21 11
-53 59 -39 59 6 0 8 5 5 11 -7 10 110 129 126 129 24 0 61 -23 68 -42 13 -35
-28 -108 -61 -108 -9 0 -9 -3 0 -12 9 -9 19 -5 41 16 41 39 52 75 36 113 -14
32 -54 52 -90 45z"/>
<path d="M1170 693 c0 -7 5 -13 10 -13 6 0 10 -13 10 -30 0 -20 -8 -34 -24
-45 -31 -21 -67 -11 -108 29 -27 26 -29 27 -16 6 17 -28 74 -70 94 -70 19 0
61 41 68 66 4 14 -1 30 -13 45 -11 13 -20 18 -21 12z"/>
<path d="M960 682 c0 -13 55 -72 67 -72 4 0 -9 17 -28 37 -18 21 -35 40 -36
42 -2 2 -3 -1 -3 -7z"/>
<path d="M406 597 c-76 -72 -86 -108 -41 -152 39 -40 68 -33 138 33 77 71 77
70 77 110 0 42 -30 72 -74 72 -27 0 -45 -11 -100 -63z m153 10 c6 -14 4 -27
-3 -36 -8 -11 -8 -13 1 -7 9 5 11 2 7 -7 -3 -8 -15 -17 -26 -20 -11 -3 -17
-10 -13 -16 3 -6 -2 -14 -12 -18 -10 -3 -22 -13 -26 -20 -5 -7 -13 -10 -19 -7
-6 4 -8 3 -5 -3 13 -20 -19 -31 -70 -24 -10 1 -33 51 -33 71 0 5 20 29 45 56
25 26 45 43 45 39 0 -5 6 -2 13 7 26 34 81 26 96 -15z"/>
<path d="M888 550 c79 -76 99 -90 126 -90 37 0 76 34 76 68 0 11 -10 31 -22
44 -13 13 -17 16 -9 6 7 -9 11 -24 7 -33 -3 -9 -2 -13 4 -10 16 10 11 -11 -8
-35 -12 -15 -29 -22 -53 -22 -30 0 -45 10 -114 81 -44 44 -84 81 -90 81 -5 0
32 -41 83 -90z"/>
<path d="M901 489 c64 -65 69 -85 27 -121 -25 -22 -47 -23 -76 -3 -17 13 -21
13 -16 2 6 -16 42 -34 62 -31 6 1 16 2 22 3 19 2 50 46 50 71 0 18 -17 42 -58
83 -32 31 -61 57 -64 57 -4 0 20 -27 53 -61z"/>
<path d="M523 467 c-54 -55 -63 -69 -63 -100 0 -27 7 -41 26 -56 46 -36 74
-28 148 42 58 56 66 68 66 100 0 49 -28 77 -77 77 -31 0 -45 -9 -100 -63z
m149 36 c3 -2 5 -23 4 -48 -2 -39 -9 -51 -49 -90 -26 -25 -51 -46 -55 -46 -33
-6 -52 -5 -52 3 0 5 -4 7 -9 3 -12 -7 -19 4 -26 44 -5 29 0 37 50 86 30 30 55
52 55 48 0 -4 5 -2 12 5 10 10 48 8 70 -5z"/>
<path d="M647 337 c-59 -55 -67 -68 -67 -99 0 -28 7 -42 26 -57 47 -37 78 -28
149 40 35 33 66 71 69 85 7 28 -16 79 -39 88 -45 17 -72 6 -138 -57z m137 31
c9 -12 16 -31 16 -42 0 -27 -48 -88 -63 -80 -7 4 -9 4 -6 0 13 -14 -38 -56
-67 -56 -41 0 -55 12 -58 51 -2 30 4 41 51 87 30 29 57 51 61 48 5 -3 14 -1
22 5 22 13 27 11 44 -13z"/>
</g>
</svg>
